<svg xmlns="http://www.w3.org/2000/svg" viewBox="0 0 200 50"><path d="M25 10c-8.284 0-15 6.716-15 15s6.716 15 15 15 15-6.716 15-15-6.716-15-15-15zm0 27.5c-6.904 0-12.5-5.596-12.5-12.5S18.096 12.5 25 12.5 37.5 18.096 37.5 25 31.904 37.5 25 37.5z" fill="#5468ff"/><path d="M25 17.5c-4.142 0-7.5 3.358-7.5 7.5s3.358 7.5 7.5 7.5 7.5-3.358 7.5-7.5-3.358-7.5-7.5-7.5zm0 12.5c-2.761 0-5-2.239-5-5s2.239-5 5-5 5 2.239 5 5-2.239 5-5 5z" fill="#5468ff"/><path d="M55 15h3v20h-3V15zm8 0h3l9 13.5V15h3v20h-3l-9-13.5V35h-3V15zm25 0h-9v20h9c5.5 0 9-4 9-10s-3.5-10-9-10zm0 17h-6V18h6c3.5 0 6 2.5 6 7s-2.5 7-6 7zm20-17h-9v20h3v-8h6c3.5 0 6-2.5 6-6s-2.5-6-6-6zm0 9h-6v-6h6c1.5 0 3 1 3 3s-1.5 3-3 3zm13 11h-3V15h3v20zm8 0h-3V15h3v20zm14.375-20h3v20h-3v-2c-1.5 1.5-3.5 2.5-6 2.5-5 0-9-4-9-10s4-10 9-10c2.5 0 4.5 1 6 2.5v-3zm-5.5 17.5c3.5 0 5.5-2.5 5.5-7s-2-7-5.5-7-6 2.5-6 7 2.5 7 6 7zm21.125 2.5c-5.5 0-9.5-4-9.5-10s4-10 9.5-10 9.5 4 9.5 10-4 10-9.5 10zm0-3c3.5 0 6.5-2.5 6.5-7s-3-7-6.5-7-6.5 2.5-6.5 7 3 7 6.5 7z" fill="#0f172a"/></svg>