<svg xmlns="http://www.w3.org/2000/svg" viewBox="0 0 150 40"><path d="M20 10h110v20H20z" fill="#fff"/><path d="M25 15h5.2c1.6 0 2.8 1.3 2.8 2.9v1.2c0 1.6-1.2 2.9-2.8 2.9H28v3h-3v-10zm3 5h2.2c.4 0 .8-.3.8-.8v-1.3c0-.5-.4-.8-.8-.8H28v3zm9.5-5h9v2h-6v2h5v2h-5v2h6v2h-9v-10zm13 0h2.8l4.2 6v-6h3v10h-2.8l-4.2-6v6h-3v-10zm18 0v2h-3v8h-3v-8h-3v-2h9zm7 0h-3v10h3v-10zm7.5 0h3v8h5v2h-8v-10zm18-1c3.3 0 6 2.7 6 6s-2.7 6-6 6-6-2.7-6-6 2.7-6 6-6zm0 3c-1.7 0-3 1.3-3 3s1.3 3 3 3 3-1.3 3-3-1.3-3-3-3zm10.5-2h3l4.2 6v-6h3v10h-2.8l-4.2-6v6h-3v-10zm12 0h9v2h-6v2h5v2h-5v2h6v2h-9v-10zm9 10v-10h5.2c1.6 0 2.8 1.3 2.8 2.9v4.2c0 1.6-1.2 2.9-2.8 2.9h-5.2zm3-8v6h2.2c.4 0 .8-.3.8-.8v-4.3c0-.5-.4-.8-.8-.8h-2.2z" fill="#333"/></svg>