<svg xmlns="http://www.w3.org/2000/svg" viewBox="0 0 100 40"><path d="M12 10h76v20H12z" fill="#fff"/><path d="M16.5 15h10v2h-3.5v8h-3v-8h-3.5v-2zm11 0h7.5v2h-4.5v2h4v2h-4v2h4.5v2h-7.5v-10zm9 0h6.5c1.4 0 2.5 1.1 2.5 2.5v5c0 1.4-1.1 2.5-2.5 2.5h-6.5v-10zm3 2v6h3.5c.3 0 .5-.2.5-.5v-5c0-.3-.2-.5-.5-.5h-3.5zm8 8v-10h3v8h4.5v2h-7.5zm9 0v-10h7.5v2h-4.5v2h4v2h-4v2h4.5v2h-7.5zm15-10c1.9 0 3.5 1.6 3.5 3.5v3c0 1.9-1.6 3.5-3.5 3.5h-4.5v-10h4.5zm-1.5 2v6h1.5c.8 0 1.5-.7 1.5-1.5v-3c0-.8-.7-1.5-1.5-1.5h-1.5zm7 8v-10h3v10h-3zm5-10h7.5v2h-4.5v2h4v2h-4v4h-3v-10z" fill="#333"/></svg>